# xmcd CD database file
#
# Track frame offsets:
#	150
#	17805
#	39567
#	57197
#
# Disc length: 1053 seconds
#
# Revision: 0
# Processed by: cddbd v1.5.1PL0 Copyright (c) Steve Scherf et al.
# Submitted via: CDex 1.51
#
DISCID=2b041b04
DTITLE=ウインズ - 止まらないで
DYEAR=1999
DGENRE=Pop
TTITLE0=止まらないで
TTITLE1=JUST MY FRIEND
TTITLE2=止まらないで(カラオケ)
TTITLE3=JUST MY FRIEND(カラオケ)
EXTD=YEAR: 1999
EXTT0=
EXTT1=
EXTT2=
EXTT3=
PLAYORDER=
